<?xml version="1.0" encoding="utf-8"?>
<!-- Generator: Adobe Illustrator 18.0.0, SVG Export Plug-In . SVG Version: 6.00 Build 0)  -->
<!DOCTYPE svg PUBLIC "-//W3C//DTD SVG 1.1//EN" "http://www.w3.org/Graphics/SVG/1.1/DTD/svg11.dtd">
<svg version="1.1" id="Layer_1" xmlns="http://www.w3.org/2000/svg" xmlns:xlink="http://www.w3.org/1999/xlink" x="0px" y="0px"
	 viewBox="0 0 644.8 800" width="644.8px" height="800px" enable-background="new 0 0 644.8 800" xml:space="preserve">
<g>
	<path fill="#040302" d="M137.9,0c1.4,0.1,2.9,0,4,1c5.5,3.9,9.6,9.4,13.3,15c5.8,8.5,8.4,18.7,10.5,28.7
		c3.6,16.1,5.3,32.7,5.3,49.2c0,17.4,1.5,35.1,7.2,51.7c7.9,23.2,22.2,44.6,42,59.2c14.4,10.4,31.5,17.8,49.4,18.5
		c7.2,0.1,14.5,0.4,21.6-0.8c-14.9-13.4-29-28.6-37.2-47.1c-5.4-12.3-7.3-25.7-8.7-39c-2.4-27.7,0.3-56-6.5-83.2
		c-3.4-13.8-7.9-27.5-15-39.9c-0.3-0.8-0.5-1.7-0.6-2.5c0.6-0.5,1.3-1,1.9-1.5c1.1,0.5,2.2,0.9,3.2,1.7c16.1,13.4,28.6,31,37.2,50.1
		c4.7,10.1,6.3,21.2,8.6,32c2.8,13.5,7,26.9,14.2,38.7c7.6,11.6,19.2,19.7,30.9,26.9c2.5,1.5,5.1,3.1,7.8,4.3
		c4.7-9.4,6.9-20,7.2-30.4c32.6,3.8,64.8,11.5,95.7,22.6c32.2,11.8,63.4,27.9,88.5,51.5c33.5,31,60.4,69.8,74.9,113.3
		c3.2,10,5.9,20.2,7.1,30.7c1-0.1,1.9-0.3,2.9-0.4c9.7-2.4,20.5-4.5,27.7-12.1c-0.7,8.6-2.3,17.2-5.5,25.2
		c-3.3,7.8-10.5,12.9-17.8,16.6c0.9,1.8,1.7,3.8,2.4,5.7c1.1,4.4,2,9,1.8,13.6c0,5.1,0.8,11.1,5.1,14.5c4.2,3.2,9.5,6.1,11.5,11.3
		c-0.5,4.9-2.3,9.7-4,14.4c8.5,10.8,15.2,23.2,18,36.7c-5.8,2.6-11.7,4.9-17.4,7.8c-0.8,10.4-3.3,20.6-6.7,30.4
		c6,2.1,13.2,1.8,17.9,6.5c3.2,3,5.7,7,6.3,11.4c1.1,7.6,2.5,15.3,2.2,23c-0.3,4.3-4.1,7.1-7.9,8.3c-9.3,3.2-19.1,3.5-28.8,4.6
		c-23.1,2.3-46.3,4.8-69.1,9.6c-2.9,11.6-6.3,23-9.7,34.3c-3.4,10.6-6.8,21.1-11.3,31.3c-8,17.4-19.8,33.2-35,44.9
		c-11.6,9-25.6,15.1-40.3,16.7c16.8-15.2,31-34.7,35-57.4c2.3-12.7,3.3-25.8,2.1-38.7c-0.3-4.7-0.5-9.5-1-14.2
		c-20.9,8.1-40.7,18.9-59.1,31.6c0.2,14-4,27.8-10.6,40c-0.9,1.9-2.8,3.7-2.1,5.9c2.6,13.4,3.2,27.2,0.5,40.6
		c-3.4,14.6-11.2,27.9-21,39.1c-0.5,7.9-5,15.3-11,20.3c-0.8,8-5.8,15.2-13.1,18.7c-3.6,1.4-5.6,5-8.9,6.9
		c-2.9,2.1-6.7,3.1-10.2,1.9c-3.4-1.5-5.6-4.9-6.3-8.5c-1.4-7.1,0.5-14.2,2.9-20.9c-0.2-2.2-1.3-4.3-1.3-6.6
		c-0.3-4.2,1.9-7.9,3.6-11.6c-1-4.5-3.3-9.2-1.5-13.9c0.8-3.2,3.2-5.7,4.4-8.7c-0.8-2.5-2.8-4.5-3.4-7.1c-1.8-7.5,0.5-15.3,4-22
		c-7.6-8.6-14.3-18.9-15.1-30.6c-0.8-5-0.5-10-0.7-15c-6.7-4.4-12.5-10-17.9-15.9c-5.1-5.9-9.9-12.4-12.4-20
		c-4.6-13.3-6-27.5-5.3-41.5c-12.3-10.7-22.1-24.5-27.1-40.1c-0.9-2.9-1.6-5.8-2.3-8.7c-7.2,1.9-14.6,2.8-22,2.3
		c-10.5-0.9-20.3-5-29.8-9.2c-15.8,2.2-31.6,4.4-47.4,5.5c-30.7,1.9-61.1,7.7-90.6,16.4c-25.8,7.8-51.2,18.2-73.4,33.6
		c-0.4,0.2-1.1,0.7-1.5,1c6.9-11.1,15.2-21.3,23.4-31.4c21.7-25.9,45.8-49.8,72.2-70.8c21.8-17.4,45.1-32.7,69.6-46.1
		c24.7-14,50.6-26.1,77.2-36.2c-1.4-13.9-0.2-27.8,1-41.7c1.1-10.7,2.5-21.3,4.3-31.9c0.4-1.6,0.6-3.2,0.8-4.8
		c-33.1-9.6-63.8-29.2-84.5-57c-25.9-34.4-37.2-78.5-34.8-121.1c0.9-20.8,5.2-41.2,7.9-61.7c3.3-17.2,5.7-34.7,4.9-52.3
		c-0.2-3.6-0.6-7.2-1.4-10.8c-0.7-3.5-2.8-6.6-3.7-10C137.2,1.7,137.6,0.6,137.9,0L137.9,0z"/>
	<path fill="#FFFFFF" d="M254,68.3c3.5,10.6,7.1,21.3,8.8,32.4c0.8-7.7,0.2-15.4,0.4-23.1c3.9,15.4,5.5,31.5,12.1,46.1
		c7,16.6,19.8,30.1,34.3,40.5c3.7,2.8,7.7,5.2,11.5,7.8c-7.6,12.5-16.5,24.3-24.9,36.3c-1.5-0.4-2.6-1.7-3.9-2.7
		c-12.9-10.6-24.4-23.8-30.1-39.8c-6-16.4-7.9-34-8.2-51.4c-0.1-8.1-0.3-16.2-1-24.2c-0.8-4.9-1.2-10-2.1-14.9
		c2.6,8.8,5.5,17.6,6.4,26.8C257.5,90.9,255.8,79.5,254,68.3L254,68.3z"/>
	<path fill="#FFFFFF" d="M152.1,70.2c0.2,0.5,0.4,1.1,0.6,1.6c1.6,10.8,1.8,21.8,2.5,32.8c0.3,5.3-0.3,10.8,1,16
		c1-6.2,1.6-12.4,2.6-18.7c0.7-3.7,1.1-7.5,1.6-11.3c1.6,7.4,1.2,15,2.1,22.5c0.7,9.5,2.3,18.8,4.6,28l0.3,0.5
		c6.9,25.4,21.3,49,41.6,65.9c8.8,7.4,18.9,13.1,29.4,17.8c16.3,7,34.5,8,52,6.4c17.2-1.4,34.2-4.8,51.5-5.3
		c16.5-0.2,33,2.5,48.7,7.6c11.1,3.6,21.9,8.7,30.5,16.7c12.6,11.3,21.3,27.1,23.3,44c1.9,8.6-0.6,17.2-2.3,25.6
		c-0.4,0.7-0.8,1.3-1.3,1.9c1.1-2.9,1.5-6,1.9-9c0-1.7,0.1-3.5,0-5.2c-0.4-2.3-0.6-4.6-0.9-6.9c-0.6,5.1-1.1,10.4-2.9,15.3
		c-0.8,2-1.3,4-1.8,6.1c0.2-4,1.3-7.9,1.5-11.9c0.8-15.2-5.4-30.9-17.1-40.8c7.6,9.2,10.6,21.2,11.8,32.8c0.7,4.9,0.2,9.9-0.6,14.8
		c-2.8,13.3-12,24.6-23.6,31.4c-6.9,4.2-14.6,6.6-22.4,8.4c6.1,0.8,12.3,0.5,18.3-1.1c6.2-0.6,12.2-2.5,17.8-5.4
		c0.6-1.2,1.8-1.9,3-2.4c-0.1,1.6-1.9,2.2-3.1,3c-10.4,8-23.4,12.8-36.7,12.8c-5.1,0.1-10.2-0.8-15.3-1.8l-0.4-0.3
		c-13.4-3.5-25.5-12-33.3-23.5c-0.2-0.2-0.6-0.6-0.8-0.8c9.8,1.2,19.4,3,29.1,4.6c-5.5-4.4-11.9-7.5-18.3-10.4
		c-15.2-6.7-31.5-10.1-47.6-14c-17.5-4.2-35.2-8-52.4-13.5c-19.5-6.4-38-16-53.7-29.2c-15.6-13-28.3-29.5-37.1-47.8
		c-9.8-20-15.4-42-17.2-64.2c-1.6-22.7,0.6-45.6,4.2-68c0.3-2.3,0.7-4.7,1.1-7c0.1,6.4,0.2,12.8,0.3,19.2c-0.1,5.5,0.4,11.1,1,16.5
		c1-3.3,1.3-6.7,1.7-10.1c1.4-9.6,2.5-19.3,3.8-29C151.8,80.3,151.7,75.2,152.1,70.2L152.1,70.2z"/>
	<path fill="#403621" d="M155.2,104.6c-0.7-10.9-0.9-21.9-2.5-32.8c0.3,0.5,0.8,1.5,1.1,2c1.1,7.4,0.1,15,1.6,22.3
		c0.3,5-0.3,10.1,1.6,14.8c0.2-3.1,0.7-6.1,1.9-9c-1,6.2-1.6,12.5-2.6,18.7C154.9,115.4,155.5,110,155.2,104.6L155.2,104.6z"/>
	<path fill="#837A76" d="M144.6,107.7c0.9,4.3,0.7,8.7,1.1,13c0.6-2.2,1.1-4.4,1.6-6.5c-0.4,3.4-0.7,6.8-1.7,10.1
		C144.9,118.8,144.5,113.3,144.6,107.7L144.6,107.7z"/>
	<path fill="#FCC324" d="M342.4,144c35.7,1.7,70.8,11.5,103.1,26.8c28.4,13.5,54.6,31.5,77.5,53c22.1,20.9,39.1,46.7,51.5,74.3
		c-33.6-5.2-67.9-5.4-101.7-2c-6.3,0.5-12.5,1.1-18.7,1.9c-2.1-29.3-21.8-56.5-48.9-67.9c-16.4-7.1-34.1-11.1-51.9-12.3
		c-18.4-1.4-36.7,2.3-54.9,4c6.7-9,12.6-18.5,19.3-27.5c5.2-7.6,11.3-14.6,15.6-22.7C337.8,163,341,153.7,342.4,144L342.4,144z"/>
	<path fill="#4D2580" d="M491.6,302.9c28.3-1.9,56.8-0.6,84.8,3.7c1.3,0.2,3,0.3,3.3,1.9c5.2,13.6,9.3,27.6,12.1,42
		c-22.7-3-45.7-4.5-68.7-3.5c-23.5,0.5-46.9,3.2-70.2,5.3c-2,8.5-5,16.8-10.1,23.9c-8.4,12.4-21.5,21.5-36.1,25.2
		c-15.8,3.9-33.1,1.6-47-6.9c-10.2-6-18.5-15.1-23.8-25.7c-17.2,3.2-34.4,6.6-51.3,11.4c-10.6,2.7-20.9,5.9-31.4,9
		c-0.9-5.8-0.7-11.6-0.6-17.4c0.5-9.7,0.7-19.5,2.1-29.1c6.1-2.3,12.8-3.3,19.1-4.9c11.5-2.7,23.2-4.7,34.9-6.3
		c5.1-0.9,10.1,1.1,14.7,2.8c4.6,9.3,11,17.8,19.2,24.2c11.7,9.5,26.6,15,41.7,15.3c12.5,0.3,25.1-3,35.9-9.3
		c14.1-8.2,25.2-21.5,30.5-37c2.5-6.9,3.4-14.3,4-21.7C467,304.7,479.3,303.4,491.6,302.9L491.6,302.9z"/>
	<path fill="#FCC324" d="M258.3,317.6c11.1,2.7,22.4,4.8,33.3,8.3c-12.1,1.6-23.8,5.1-35.7,7.5C256.6,328.1,257.1,322.8,258.3,317.6
		L258.3,317.6z"/>
	<path fill="#FCC324" d="M601.5,356.2c7-1,13.8-3.3,20.6-5.4c-1.5,9.2-7.7,17.8-16.5,21.1c-5.3,2.3-11.1,2-16.7,2.4
		c-6.6-0.1-13.2-0.9-19.5-2.8c-5.4-1.7-10.9-2.8-16.5-3.9c4.4-2.1,9.1-3.8,14-4.6c-15.2-2.4-32.3-1-44.9,8.7
		c-0.2-4.5-0.1-9.3,2.1-13.4c1.2-2.2,3.4-3.7,5.9-4.3c7.6-1.9,15.5-1.2,23.2-1C569.3,354.2,585.4,357.7,601.5,356.2L601.5,356.2z"/>
	<path fill="#E6BDA8" d="M491.2,357.3c7.8-0.9,15.6-2,23.5-2.1c-2.6,9-3.9,18.9-0.8,27.9c9.6-5.6,20.9-7.9,31.9-6.7
		c12.3,1.3,24.3,4.2,36.6,5.6c6.2,0.6,12.6,1.3,18.6-0.8c2.9,7,5.2,14.5,5,22.1c0.1,5.2,1.1,10.9,4.8,14.8c2.7,2.9,7,3.4,9.9,5.9
		c1.8,2.6,1.2,6.1,0.6,9c-0.4,2.6-3,4.7-5.7,3.9c-11.4-2.1-23.1-2-34.5,0.1c-0.9-4.2-2.2-9.5,1-13c3.7-3.8,9.5-3.6,14.4-3.7
		c-3.9-1.2-7.8-2.7-11.9-2.5c-5,0-9.8,3.3-11.8,8c-1.1,3.9-0.3,7.9,0,11.8c0.2,0.2,0.5,0.7,0.7,1c-22.7,7.5-43.1,21.7-58.5,40
		c-16.6,19.2-26.4,43.5-31,68.3c-9.2,0.9-19.1,0.2-26.9-5.1c-8.6-5.8-13.2-15.8-16.3-25.4c-3.3-11.1-3.9-23-2.1-34.5
		c-5.3,2.1-11.1,3.7-16.8,2.5c-2.6-0.6-4.5-2.5-6.1-4.4c13.5-11.9,27.5-23.3,39.4-36.9c10,2.8,21.3,3.9,28.7,12
		c4.4,4.1,5.7,10.2,6.1,15.9c0.9,7,1,14,1.8,21c2.2-9.7,4.6-19.5,5.1-29.5c0.4-8.6-2.8-17.8-9.7-23.3c-6.8-4.8-15.1-6.6-22.3-10.5
		c10.2-14,16.3-30.5,20.8-47.1C488.2,373.5,489.6,365.4,491.2,357.3L491.2,357.3z"/>
	<path fill="#FCC324" d="M461.3,361.4c6.1-0.6,12.2-1.4,18.3-1.9c-1.7,17.8-7.4,35.2-16,50.9c-13,23.7-33.4,41.9-52.9,60.1
		c-23.9,22.4-46.9,46.8-61.6,76.4c-7.4,14.4-12.4,29.8-16.4,45.4c-1-11-1.4-22.2,0.2-33.2c2.1-15.3,7.3-30.3,15.6-43.4
		c-10.3,10.7-17.9,24.1-22.2,38.3c-2.8,10.4-5.2,21.2-4.5,32c-11.7-7.6-23.6-15.4-32.5-26.3c-10.2-12-16-27.6-16.7-43.3
		c-0.6-17.8-0.1-35.8,4.6-53.1c-8.4,10.2-17.7,19.7-28.5,27.4c-13.7,10-29.4,16.8-45.9,20.8c-19.2,4.7-38.9,5.7-58.5,7.4
		c-16.4,1.2-32.5,5-48.6,8.2c10.2-11,21.2-21.2,32.4-31.3c11.6-10.1,23.4-20.1,36.5-28.4c13.8-8.8,28.2-16.4,42.8-23.6
		c16.1-7.8,32.2-15.5,48.9-22.1c-18.6,10.3-34.6,24.5-49.7,39.2c0,0.2,0.1,0.6,0.1,0.8c1.2-1.6,3-2.4,4.7-3.4
		c24-15,48.6-29.2,73.1-43.5c-9.8,9.7-20.3,18.6-30.7,27.7c-18.8,16.2-38,32.1-58.3,46.3c15.6-7.4,30.6-16,45-25.5
		c11.3-7.6,22.4-15.8,32.5-25c19.7-18.4,42.3-33.4,65.9-46.2c6.9,6.5,15.1,11.7,23.8,15.6c1.7,0.1,0.1,1.4-0.4,1.8
		c-11.2,8-23.2,15.4-32.3,25.9c-5.1,5.8-8.7,12.9-11.1,20.2c8.9-10.4,18.9-19.9,30.1-27.8c8.2-5.9,17.5-10,25.5-15.9
		c8.2,1.2,16.5,2.6,24.8,2c-1.9,0.9-3.6,2-5.3,3.3c-14.2,10.4-29.5,19.2-44.2,29c-11.7,7.9-23,17-31.2,28.7
		c-10.7,15.1-15.4,33.7-16.3,52c3.2-16.5,9.7-32.5,19.8-46c6.8-9.3,15.6-17,25.5-22.8c24.7-14.8,50.7-28.2,72.1-47.8
		c2.3-2.1,4.3-4.8,7.3-6c11.5-5.5,21.2-14.7,27.3-25.9C457.3,373.1,459.5,367.3,461.3,361.4L461.3,361.4z"/>
	<path fill="#FCC324" d="M233.8,406.8c30.6-12.6,62.4-22.5,95-28.1c1.7,1.7,3.2,3.6,4.5,5.6c-31.4,9-61.6,21.5-91.3,34.8
		c-30.8,14.1-61,29.4-89.3,48c-26.5,17.2-48.8,39.8-70.9,62.2c-1,0.9-2.3,1.2-3.5,1.6c-13.6,4.4-26.8,9.9-40,15.5
		c9.8-11.2,20.6-21.5,31.2-31.9c22.9-21.7,46.7-42.7,73.4-59.7C171.7,436.1,202.1,419.9,233.8,406.8L233.8,406.8z"/>
	<path fill="#403621" d="M538,385.6c11.7-3.1,24.6-5.9,36.2-1.4c-4.7,0.7-9.4,1.7-13.7,3.7c1.9,2.9,4.3,5.5,5.5,8.8
		c0.5,4.4-0.5,8.9-1.2,13.3c-0.8,4.5-2.1,9.4-5.8,12.4c-9.1,7-20,11.8-28,20.3c-6,5.9-10.5,13-15.2,20c1.9-9.1,5.1-18,10.4-25.7
		c8.2-10.8,19.4-19.1,31.2-25.5c1.2-5.2,2.4-10.4,3.5-15.6c-3.1-1.9-6.4-3.7-10-4.2c-8.2-1.2-16.7-0.9-24.7-3.3
		C530.1,387.1,534.2,386.7,538,385.6L538,385.6z"/>
	<path fill="#FCC324" d="M571.3,448.8c13.7-5.5,28.8-7.6,43.4-5.2c2.9,0.2,4.5,3,6.4,4.9c5.6,6.7,10.3,14.8,11,23.6
		c-11.9,3.4-23.3,8.4-34.2,14.2c-9.9,5.4-19.9,11.3-27.7,19.6c-13.2,13.8-22.9,30.7-30.7,48.1c4.2-28.7,17.7-55.5,36-77.8
		c-10.2,5.9-18.6,14.6-24.8,24.5c-8.8,14.1-13.9,30.2-17.6,46.3c-3,12.4-4.4,25-6.9,37.5c-3,15.2-6.9,30.3-12.3,44.9
		c-3.5,9.3-7.4,18.5-12.9,26.7c7.4-25.1,8.5-51.5,11.7-77.4c1.8-14.2,3.5-28.5,7.4-42.3c4.2-15.2,10.6-29.9,18.8-43.4
		c-9.7,6.8-16.7,16.8-21.8,27.4c-7.5,15.7-11.4,32.9-14.1,50c-2.3,15.2-2.9,30.7-5.5,45.9c-2.8,16.4-6.5,32.9-14.2,47.8
		c0.8-5.2,2.4-10.2,3-15.4c3.1-19.8,1.8-40,2.3-60c0.9-16.2,1.8-32.5,5.2-48.4c2.9-13.7,7.5-27.2,15-39.1
		c7.6-12,17.3-22.6,28.2-31.7C547.5,461.1,558.9,453.8,571.3,448.8L571.3,448.8z"/>
	<path fill="#FCC324" d="M253.5,498.7c4.5-3.8,8.6-8,12.5-12.4c-1.7,11.1-0.9,22.4-0.4,33.6c-6.6,2.1-13.4,3.5-20.3,3.5
		c-8.1-0.5-16-3.3-23.2-6.9C234.1,513.7,244.3,506.5,253.5,498.7L253.5,498.7z"/>
	<path fill="#E6BDA8" d="M401.9,493.2c1-1,2.1-2,3.1-3c3.9,5.1,10.1,8,16.5,8.6c4.1,14.9,8.4,30.6,18.6,42.6
		c5.8,7,13.3,12.8,22.2,15.1c6.3,1.8,13,1.1,19.5,1.2c-1.3,8.8-2.2,17.6-2.5,26.5c-10.3,3.3-20,8.1-29.7,12.8
		c-10.5,5.1-20.9,10.5-31.3,15.9c-1.5-11.1-4.5-21.9-8.2-32.4c-0.6-1.2,0.1-2.4,0.4-3.5c2.9-8,5-16.3,6.4-24.6
		c1.1-7,1.7-14.2,0.2-21.1C414,517.8,409.2,504.8,401.9,493.2L401.9,493.2z"/>
	<path fill="#E6BDA8" d="M573.7,517c11.7-11.3,25.3-20.6,40.1-27.3c0.2,10.5-3.7,20.4-7.1,30.1c7.6-0.1,15.9,0,22.2,4.9
		c4.5,3.9,5.5,10.2,6.5,15.7c0.6,3.5,0.5,8.4-3.2,10.2c-2.9,0.9-6,0.4-9,0.4c-14.5-0.3-28.8-2.6-43.2-3.4c-8.6-0.3-17.2-1-25.8-1.1
		C557.8,535.3,565.4,525.5,573.7,517L573.7,517z"/>
	<path fill="#FCC324" d="M392,500.3c8.9,8.6,14.5,20.5,16.4,32.7c2.4,16.4-2.6,33.1-11.3,47c-8.5,13.2-17.3,26.2-22.9,41
		c-10.2-7.7-21.2-14.3-32-21.2c1.6-17.5,7.2-34.4,14.6-50.2C366,531.5,378.9,515.6,392,500.3L392,500.3z"/>
	<path fill="#E6BDA8" d="M547.5,556.1c19.8-0.3,39.5,0.7,59.3,1c7.7,0.9,15.4,0.1,23.1,0c-2.4,1.1-5,1.7-7.7,1.8
		c-15,1.2-30,2-44.9,3.8c-11.8,1.3-23.6,3.2-35.3,5.3C543.5,563.8,545.4,559.9,547.5,556.1L547.5,556.1z"/>
	<path fill="#FCC324" d="M302.3,584.7c11.8,9.1,25.4,15.5,38.1,23.2c10.6,6.6,20.6,14,30.6,21.5c-3.3,8.8-6.2,17.8-8.7,26.9
		c-0.5,1.5-0.7,3.1-1.5,4.5c-10.3-6-20.7-11.8-30.5-18.7c-6.8-4.9-13.6-10.4-17.9-17.9C305.6,612.2,302.7,598.4,302.3,584.7
		L302.3,584.7z"/>
	<path fill="#FCC324" d="M397.1,599.9c1.8-2.6,3.4-5.3,5.3-7.8c5.5,10.2,9.5,21.7,8.5,33.4c-0.9,14.2-6.3,27.7-13.1,40
		c-3.3,4.9-7.3,9.3-10.9,14c-5.5-5.2-11.5-9.8-17.9-14c3.6-12.3,7.7-24.4,12.7-36.2C386.2,619.2,390.5,608.9,397.1,599.9
		L397.1,599.9z"/>
	<path fill="#FCC324" d="M340.9,661.2c5.4,2.5,10.5,5.7,15.8,8.4c9.3,4.9,18.2,10.6,26.2,17.4c-3.9,7.3-8.1,14.4-12.2,21.6
		c-9.2-5-17.1-12.3-22.9-21C342.8,679.8,341.1,670.4,340.9,661.2L340.9,661.2z"/>
	<path fill="#FCC324" d="M383.2,699.9c4.5-7,8.8-14.2,14.2-20.6c3.7,13.3,5,28-0.6,41c-4.2,10-10.1,19.3-17.3,27.5
		c-3.5-4.9-7.4-9.6-12.4-13C371.4,722.7,376.3,710.7,383.2,699.9L383.2,699.9z"/>
	<path fill="#FCC324" d="M355.1,705.6c3.9,3.3,8,6.2,12.4,8.6c-2.1,5.8-4.3,11.6-5.9,17.6c-7.7-2.6-12.5-11.3-10.7-19.2
		C351.5,709.9,353.4,707.8,355.1,705.6L355.1,705.6z"/>
	<path fill="#FCC324" d="M350.2,746.8c-2.5-4.7-1.4-10.4,1.4-14.7c5.4,6.7,14.6,8.3,20.2,14.8c2.7,3,5.2,6.6,4.8,10.8
		c0,3.5-2.6,6-4.9,8.2c-2-3.8-4.7-7.5-8.6-9.5C358.5,753.8,353,751.6,350.2,746.8L350.2,746.8z"/>
	<path fill="#FCC324" d="M348.9,753.8c2.2-0.2,3.3,2.6,5,3.6c5.9,4.3,12,9.5,13.9,16.9c0.2,4.7-4.3,7.5-7.7,9.8
		c-0.2-1.8-0.1-3.8-0.9-5.4c-2.4-5.8-9.5-7.3-12.4-12.8C344.6,761.8,347,757.4,348.9,753.8L348.9,753.8z"/>
	<path fill="#FCC324" d="M344,789.2c-1-5.3,0.8-10.6,3.7-15c1.7,3,3.9,5.8,5.6,8.8c1.6,2.9,0.7,7-2.1,8.9
		C348.6,793.5,344.8,792.2,344,789.2L344,789.2z"/>
</g>
</svg>
